# xmcd CD database file generated by MAGIX-FreeDB-MP3_Maker_12 v2.0beta1
# 
# Track frame offsets:
#      150
#      12090
#      26860
#      37424
#      55721
#      72308
#      88829
#      102061
#      119509
#      136887
#      152746
#      171305
#      184496
#      198708
#      213999
#      232900
#      247746
#      283317
# 
# Disc length: 3943 seconds
# 
# Revision: 0 
# Processed by: cddbd v1.5.2PL0 Copyright (c) Steve Scherf et al.
# Submitted via: MAGIX-FreeDB-MP3_Maker_12 v2.0beta1
# 
DISCID=0a0f6512
DTITLE=New York City Bell - Heart and Soul - Two Lovers
DYEAR=1900
DGENRE=
TTITLE0=The Three Degrees - When Will I See You Again
TTITLE1=The Detroit Emeralds - Feel The Need In Me
TTITLE2=Ben E. King - I Who Have Nothing
TTITLE3=Odyssey - Inside Out
TTITLE4=Mary Wells - Two Lovers
TTITLE5=Solomon Burke - The More
TTITLE6=Sam and Dave - Soul Man
TTITLE7=Curtis Mayfield - Superfly
TTITLE8=Johnny Bristol ft. Liss Lands - Hang On In There Baby
TTITLE9=Luther Ingram - (If Loving You Is Wrong) I Don't Want To Be Right
TTITLE10=Lou Rawls - Lady Love
TTITLE11=Percy Sledge - I've Been Loving You To Long
TTITLE12=The Tams - Be Young,Be Foolish,Be Happy
TTITLE13=Betty Wright - Tonight's The Night
TTITLE14=Delegation - Put A Little Love On Me
TTITLE15=Harold Melvin ft. The Blue Notes - Satisfaction Guaranted
TTITLE16=Silver Convention - Fly Robin Fly
TTITLE17=New York City Bell - I'm Doing Fine Now
EXTD=
EXTT0=
EXTT1=
EXTT2=
EXTT3=
EXTT4=
EXTT5=
EXTT6=
EXTT7=
EXTT8=
EXTT9=
EXTT10=
EXTT11=
EXTT12=
EXTT13=
EXTT14=
EXTT15=
EXTT16=
EXTT17=
PLAYORDER=
